<svg width="50" height="47" viewBox="0 0 50 47" fill="none" xmlns="http://www.w3.org/2000/svg">
<g clip-path="url(#clip0_143_919)">
<path fill-rule="evenodd" clip-rule="evenodd" d="M24.9459 8.29703C25.7695 7.73443 26.5489 6.95359 27.3538 6.31567C26.5079 6.39185 25.3605 7.24634 24.9459 8.29703Z" fill="#322000"/>
<path fill-rule="evenodd" clip-rule="evenodd" d="M28.349 7.29733C28.1235 7.2356 28.2722 7.20121 28.0997 7.07695C27.1213 7.2864 25.9267 7.92075 25.3754 9.02627C26.247 8.26523 27.2564 7.67832 28.349 7.29733Z" fill="#322000"/>
<path fill-rule="evenodd" clip-rule="evenodd" d="M27.0984 8.79301C27.4655 8.67682 27.8228 8.5319 28.1671 8.35958C28.1166 8.32689 28.1463 8.27448 28.0752 8.2411C27.3623 8.4244 26.6383 8.50777 26.0316 9.22347C26.4389 9.29747 26.757 8.94285 27.0984 8.79301Z" fill="#322000"/>
<path fill-rule="evenodd" clip-rule="evenodd" d="M11.7341 12.2866C11.6466 13.0728 12.0832 13.798 12.3167 14.5181C12.3996 14.8553 12.5047 15.1866 12.6313 15.5099C13.9286 18.1999 18.165 19.5136 20.7606 20.3216C20.7456 20.6848 20.7551 21.0486 20.7891 21.4105C18.8117 20.6825 16.8625 20.0739 15.0213 19.9819C14.8723 19.8138 14.6803 19.6895 14.4659 19.6224C13.7272 19.3507 11.7724 19.5645 11.3415 19.8461C11.1595 20.0017 11.0028 20.1846 10.8768 20.3881C10.4913 20.619 10.048 20.5681 9.65065 20.7197C9.82069 21.3945 10.5908 21.0838 10.9722 20.8461C12.083 21.5652 13.2181 21.0356 14.3041 21.0897C15.5209 21.8142 16.86 21.7834 18.1015 22.0855C16.5626 22.2929 15.0521 22.6738 13.5988 23.2208C12.9029 23.4951 11.98 24.0483 12.062 24.8136C11.3596 25.0458 10.3311 25.1176 9.77272 25.9151C9.38664 26.4659 8.85637 28.0402 8.97018 28.548C9.05676 28.9285 9.45124 29.146 9.33673 29.4596C9.22222 29.7732 8.53795 30.0425 8.58941 30.4382C9.24736 30.6914 9.90886 29.8974 10.0663 29.1985C11.0372 28.4279 11.6718 26.4449 12.7115 25.4574C12.8519 25.5697 13.0213 25.6399 13.2 25.6598C14.9152 24.8526 16.7017 23.5057 18.4165 23.2461C17.4024 24.249 16.5329 25.3883 15.8332 26.6312C14.8813 28.3034 14.2112 30.1328 14.5016 31.7284C14.5473 31.9898 14.7006 32.2282 14.7357 32.4995C14.8955 33.8673 14.6143 35.7925 16.4548 36.7058C17.2233 37.0811 17.8561 36.5593 18.5306 36.3638C19.3057 36.1365 20.1957 36.0636 20.9441 35.6757C23.6201 34.2893 25.2921 30.5672 26.0872 27.8157C26.5803 29.7386 26.6255 31.7489 26.2194 33.692C26.0983 34.0595 26.0765 34.4525 26.1563 34.8312C25.7844 36.1413 24.8547 37.5709 25.3428 38.6918C25.1649 39.1034 24.7562 39.214 24.686 39.6153C25.1248 40.1354 25.7183 39.3227 25.9468 38.8005C26.162 38.7786 26.3691 38.7069 26.5517 38.591C26.7343 38.4751 26.8873 38.3182 26.9986 38.1327C27.0986 37.9783 27.081 37.7646 27.1874 37.5807C27.2586 37.4708 27.4062 37.3599 27.4568 37.2493C27.8065 36.4811 27.4241 35.6266 27.3893 35.0098C28.686 32.7854 27.6201 30.5908 27.4981 28.67C27.9675 29.7873 28.6109 30.8571 28.9308 32.0166C29.02 32.1587 29.0964 32.1449 29.2486 32.2224C29.3684 33.1765 29.4901 34.1278 30.5023 34.8884C30.6036 35.1941 30.7483 35.8104 31.2603 35.7162C31.6063 35.3249 31.0757 34.9856 31.0891 34.5939C31.0916 34.4143 31.2305 34.2387 31.251 34.0834C31.2878 33.6657 31.2556 33.2447 31.1557 32.8374C31.001 32.0897 30.6165 31.409 30.0559 30.8906C29.9714 29.7907 29.3861 28.6701 28.742 27.6209C28.1653 26.6798 27.4318 25.8444 26.5733 25.1508C26.9431 25.0614 27.2826 24.8429 27.6556 24.7809C29.1087 26.143 30.8261 28.1188 33.0431 29.2253C35.025 30.2132 36.9831 30.1701 38.4189 28.6553C39.4243 28.6908 41.7005 27.4923 41.3052 26.1954C39.0994 24.8307 37.0954 24.528 34.9884 23.792C33.1328 23.1429 31.3475 22.4633 29.4676 21.9038C29.5555 21.7289 29.4809 21.5837 29.5659 21.4069C30.1152 21.3982 30.6624 21.3376 31.2003 21.2259C31.9775 21.08 32.8268 21.044 33.3727 20.0446C33.7251 19.3961 34.3177 18.7345 34.6664 17.9614C34.7893 17.687 34.7141 17.3475 34.8101 17.043C34.9061 16.7384 35.2068 16.5538 35.116 16.2253C34.8042 16.0235 34.4964 16.4859 34.4151 16.7873C33.5154 16.9466 32.3876 18.526 32.434 19.4959C31.3898 19.3781 30.34 19.6632 29.4989 20.2931C29.3675 20.0919 29.2632 19.8742 29.1889 19.6456C30.8451 18.6106 30.5805 16.3827 29.9153 15.2229C30.719 15.0099 31.6156 14.7642 32.5564 14.9645C33.2562 15.114 33.9989 15.7635 34.3243 14.9289C33.9568 14.24 33.4656 14.5627 33.0899 14.5766C32.5623 14.5974 31.507 14.4958 30.8369 14.5804C30.4137 14.6352 29.8094 14.9436 29.5306 14.8601C29.102 14.7344 28.8703 14.3567 28.4751 14.2315C29.0317 12.7207 28.9202 11.1481 27.5038 10.1722C27.3697 10.21 27.2539 10.2954 27.1782 10.4124C27.1025 10.5293 27.0719 10.6699 27.0923 10.8077C27.1948 11.1312 27.4926 11.0163 27.7113 11.1536C28.8355 11.8519 28.3485 12.9948 28.1054 14.106C27.0348 14.2559 25.2885 13.9978 24.5764 15.4754C24.3874 15.9186 24.326 16.4058 24.3991 16.8821C24.2202 16.7873 23.9195 16.972 23.8473 16.862C24.0343 15.5998 23.9914 14.314 23.7206 13.067C24.31 12.6774 25.5604 12.5427 25.9669 11.765C26.0356 11.5407 26.0892 11.3122 26.1275 11.0808C26.1923 10.8699 26.3666 10.6203 26.2225 10.4132C26.0711 10.4446 25.9307 10.5153 25.8153 10.6181C25.6999 10.7209 25.6136 10.8523 25.5651 10.9991C25.3986 10.9503 25.2761 11.0354 25.1052 11.0975C24.5955 11.2859 22.9733 12.086 22.6667 12.781C22.5991 12.931 22.6794 13.2106 22.6622 13.3934C22.5621 13.8852 22.5201 14.387 22.5372 14.8886C22.6129 15.69 22.8036 16.4763 23.1035 17.2234C22.8786 17.2843 22.6893 17.5116 22.4395 17.4679C19.5871 15.0187 16.1883 11.5583 12.8255 9.38978C12.582 9.23213 11.9133 9.56203 11.7701 9.71803C10.8928 10.6631 11.4851 11.5059 11.7341 12.2866Z" fill="#322000"/>
<path fill-rule="evenodd" clip-rule="evenodd" d="M42.7285 26.9524L42.6097 26.8755C41.9954 27.5315 41.2696 28.4313 40.7569 29.0476C41.5211 28.9608 42.3639 27.8543 42.7285 26.9524Z" fill="#322000"/>
<path fill-rule="evenodd" clip-rule="evenodd" d="M43.3594 27.8075L43.2495 27.7364C42.7373 28.2477 42.072 28.8327 41.6711 29.3023C42.294 29.2841 43.1178 28.5909 43.3594 27.8075Z" fill="#322000"/>
<path fill-rule="evenodd" clip-rule="evenodd" d="M43.5968 28.6522C43.1575 29.0379 42.6869 29.2896 42.2351 29.6293C42.3888 29.655 42.5459 29.6501 42.6977 29.6149C42.8494 29.5796 42.9926 29.5147 43.1192 29.4239C43.2457 29.3331 43.3531 29.2182 43.435 29.0857C43.517 28.9533 43.572 28.806 43.5968 28.6522Z" fill="#322000"/>
<path fill-rule="evenodd" clip-rule="evenodd" d="M10.588 11.7133C10.5425 11.7492 10.4883 11.7723 10.4309 11.7802C10.2676 12.3226 10.2403 12.8969 10.3514 13.4524C10.4347 13.8056 10.6421 14.4161 11.148 14.3052C10.7613 13.4969 10.5695 12.6092 10.588 11.7133Z" fill="#322000"/>
<path fill-rule="evenodd" clip-rule="evenodd" d="M10.2641 14.2386C10.3659 13.567 10.0108 12.9958 9.96397 12.3585L9.88379 12.3066C9.54939 13.0511 9.87249 13.6522 10.2641 14.2386Z" fill="#322000"/>
<path fill-rule="evenodd" clip-rule="evenodd" d="M9.87138 14.9034C9.64385 14.2588 9.48482 13.5995 9.21816 12.9633C8.67516 13.5937 9.22409 14.6403 9.87138 14.9034Z" fill="#322000"/>
<path fill-rule="evenodd" clip-rule="evenodd" d="M25.5713 11.5044C25.0382 12.2172 24.3469 12.1784 23.7517 12.577C24.1867 12.0873 24.8883 11.4332 25.5713 11.5044Z" fill="url(#paint0_linear_143_919)"/>
<path fill-rule="evenodd" clip-rule="evenodd" d="M34.3509 17.3102C34.3768 17.9212 33.5411 18.8932 33.1237 19.3816C33.3461 18.6996 33.6413 17.5926 34.3509 17.3102Z" fill="url(#paint1_linear_143_919)"/>
<path fill-rule="evenodd" clip-rule="evenodd" d="M23.3994 16.4207C22.9794 15.4744 23.0536 14.4225 23.0592 13.3851C23.1668 13.3621 23.267 13.2921 23.3987 13.3815C23.5041 14.3918 23.5044 15.4103 23.3994 16.4207Z" fill="url(#paint2_linear_143_919)"/>
<path fill-rule="evenodd" clip-rule="evenodd" d="M40.7616 26.6905C40.3302 27.1365 39.8374 27.5185 39.298 27.8251C37.2347 28.7989 34.2138 28.4068 31.5281 26.449C30.421 25.6396 29.4091 24.6052 28.3241 23.7553C28.1459 23.64 27.9291 23.4996 27.7551 23.3322C27.6497 23.2345 27.3631 23.0784 27.4473 22.8506C27.6132 22.6335 27.7602 22.9857 27.8287 23.0427C29.2023 24.1512 30.6508 25.1635 32.1638 26.0725C31.9967 25.5428 31.2647 25.2544 30.7483 24.8737C29.7687 24.2086 28.8284 23.4874 27.9322 22.7136C29.8463 23.7884 31.8733 24.6483 33.9764 25.2777C32.2828 24.4173 30.5701 23.7427 28.6245 22.6012C28.4166 22.4666 27.9328 22.322 27.8731 22.1148C28.0531 21.9995 28.3316 22.1292 28.5021 22.1848C30.1491 22.72 31.8642 23.2866 33.5779 23.8945C35.8883 24.72 38.0848 25.396 40.4082 26.4618C40.5513 26.489 40.6781 26.5711 40.7616 26.6905Z" fill="url(#paint3_linear_143_919)"/>
<path fill-rule="evenodd" clip-rule="evenodd" d="M28.8723 21.6911C28.448 21.5784 28.018 21.4885 27.5841 21.4219C27.3452 22.4094 25.8482 23.3157 27.0178 24.0349C25.9861 24.5935 24.7378 25.0244 23.3111 23.9407C22.1045 23.0247 21.1639 21.8215 21.4984 20.5756C21.8284 20.528 22.2138 20.7269 22.5607 20.7576C23.0061 20.1131 23.5101 19.511 24.0663 18.9591C23.9 18.5649 23.3093 18.2795 23.059 17.9109C24.0416 17.3501 25.212 17.6189 26.4247 18.1805C26.6603 18.2657 26.2894 18.4807 26.4448 18.5856C26.6003 18.6904 26.7429 18.4962 26.8881 18.4216C28.3897 19.0902 29.229 20.4174 28.8723 21.6911ZM27.122 19.0955C26.8243 18.8523 26.5932 19.4697 26.7238 19.6259C26.9389 19.6387 27.1277 19.3015 27.122 19.0955ZM27.7161 20.4368C27.9034 20.2842 28.0559 19.8729 27.7309 19.7173C27.4674 19.8965 27.4671 20.3852 27.7161 20.4368ZM24.2194 18.4556C24.41 18.4736 24.62 18.1754 24.6728 18.0157C24.4764 17.7917 24.1073 18.2903 24.2194 18.4556ZM25.424 19.2902C25.6998 19.5151 25.9695 19.0659 25.9409 18.8367C25.6712 18.6284 25.5056 19.0859 25.424 19.2902ZM24.6913 18.5925C24.7027 18.7052 24.667 18.8254 24.827 18.9037C24.987 18.982 25.0626 18.8328 25.1496 18.6658C25.1439 18.6134 25.1211 18.5643 25.0848 18.526C25.0484 18.4878 25.0005 18.4626 24.9484 18.4543C24.8964 18.4459 24.843 18.455 24.7965 18.4799C24.7501 18.5049 24.7131 18.5445 24.6913 18.5925ZM27.7616 20.972C27.9873 21.1181 28.1538 21.0953 28.2831 20.8629C28.1646 20.5839 27.7812 20.7529 27.7616 20.972ZM26.0248 20.1849C26.6256 19.9079 26.0285 19.3654 25.7603 20.0726C25.8618 20.1763 25.9298 20.1233 26.0248 20.1849ZM26.8109 20.188C26.5254 20.2645 26.5073 20.7416 26.7912 20.9086C26.8461 20.8666 26.8909 20.8129 26.9224 20.7514C26.9538 20.6898 26.9712 20.6221 26.973 20.553C26.9749 20.4839 26.9614 20.4153 26.9333 20.3521C26.9053 20.289 26.8634 20.2329 26.8109 20.188ZM24.4887 19.869C24.756 20.042 24.9624 19.8469 25.1546 19.6216C24.9618 19.2944 24.4446 19.5791 24.4858 19.8671L24.4887 19.869ZM25.3723 21.2839C25.6278 21.4493 25.941 20.8091 25.9159 20.6201L25.7971 20.5432C25.5811 20.6099 25.2665 21.0763 25.3694 21.282L25.3723 21.2839ZM25.8294 22.1403C25.9993 22.2092 26.1892 22.2094 26.3592 22.1411C26.5292 22.0727 26.6661 21.941 26.741 21.7738C26.3706 21.5972 26.1017 21.8825 25.8264 22.1384L25.8294 22.1403ZM24.9536 20.7979C24.5605 20.7542 24.1987 21.5735 24.7415 21.7311C24.8873 21.6303 24.99 21.4786 25.0292 21.3058C25.0685 21.133 25.0415 20.9518 24.9536 20.7979ZM23.4448 20.6092C23.3542 20.8077 23.6211 21.3134 23.9722 21.0055C24.1459 20.5743 23.6591 20.1285 23.4505 20.6003L23.4448 20.6092ZM25.2337 23.2298C25.5403 23.4072 25.9784 23.2904 25.9496 22.9051C25.6516 22.708 25.4335 22.9081 25.2395 23.2209L25.2337 23.2298ZM23.0321 22.0279C23.2755 21.9579 23.2616 21.5822 23.4251 21.3298C23.1117 21.0848 22.6176 21.848 23.0379 22.019L23.0321 22.0279ZM24.1299 23.0209C24.306 22.9832 24.4331 22.7283 24.5696 22.5175C24.5046 21.8432 23.6463 22.7458 24.1356 23.012L24.1299 23.0209ZM22.1389 22.0144C22.3312 21.7174 22.1936 21.4808 22.3378 21.1865L22.219 21.1096C21.79 21.2449 21.901 21.9068 22.1447 22.0055L22.1389 22.0144ZM24.9031 24.2548C25.0657 24.3557 25.2598 24.3929 25.4481 24.3592C25.6365 24.3255 25.8057 24.2233 25.9232 24.0723C25.6589 23.7579 25.0501 23.9496 24.9118 24.2478L24.9031 24.2548ZM23.7843 23.8087C23.8551 23.8301 23.9297 23.8361 24.0031 23.8264C24.0764 23.8167 24.1469 23.7915 24.2097 23.7523C24.2725 23.7132 24.3263 23.6611 24.3674 23.5996C24.4085 23.538 24.4359 23.4684 24.448 23.3954C24.1742 23.1803 23.7538 23.5108 23.793 23.8017L23.7843 23.8087Z" fill="url(#paint4_linear_143_919)"/>
<path fill-rule="evenodd" clip-rule="evenodd" d="M22.7102 18.2669C20.645 17.0691 18.9967 15.4878 16.9868 14.1656C18.5147 15.8417 20.958 17.6468 23.1003 18.9662C22.91 19.3319 22.5379 18.9561 22.3276 18.8579C20.6219 18.0487 18.408 16.6577 16.6293 15.6748C18.2314 17.1713 20.6987 18.4314 22.621 19.4398C21.1116 19.2128 19.4605 18.3716 17.6823 17.427C15.6235 16.3302 13.7978 15.3548 12.8122 13.6547C12.6102 13.2733 12.435 12.8783 12.288 12.4724C12.1083 12.0955 11.9665 11.7016 11.8649 11.2966C11.7782 10.4735 12.3497 9.62972 13.2512 10.1121C13.6904 10.4261 14.1064 10.7714 14.4957 11.1454C17.4288 13.3982 19.7933 16.0541 22.7102 18.2669ZM14.7389 12.0783C14.5987 11.9028 14.4282 11.7539 14.2354 11.6386C14.1134 11.8335 14.5348 12.2959 14.7389 12.0783ZM14.04 13.594C14.3193 13.9308 14.6481 14.4386 15.1813 14.611C14.918 14.3015 14.4286 13.6643 14.0412 13.6117L14.04 13.594Z" fill="url(#paint5_linear_143_919)"/>
<path fill-rule="evenodd" clip-rule="evenodd" d="M37.7914 28.7589C34.733 31.2632 29.7307 26.4908 27.3941 23.7138C28.01 24.1325 28.5904 24.6012 29.1293 25.1153C30.3137 26.2343 31.6221 27.2143 33.0291 28.0361C34.689 28.942 36.3634 28.8881 37.7914 28.7589Z" fill="url(#paint6_linear_143_919)"/>
<path fill-rule="evenodd" clip-rule="evenodd" d="M26.1064 25.3583C27.5836 26.7613 28.7965 28.3641 29.3899 30.0125C29.5369 30.4364 29.8993 31.0419 29.4102 31.3743C29.0966 30.9288 28.8439 30.4435 28.6587 29.9311C28.2369 28.9138 27.7516 27.924 27.2056 26.9675C26.9026 26.4721 26.4713 26.0707 26.1513 25.5559C26.1041 25.479 26.0114 25.5117 26.1064 25.3583Z" fill="url(#paint7_linear_143_919)"/>
<path fill-rule="evenodd" clip-rule="evenodd" d="M20.5201 21.9107C18.618 21.5939 16.7909 21.6038 14.7975 20.8486C15.5373 20.4088 16.5507 20.7444 17.4838 20.9566C18.5317 21.1468 19.5517 21.4673 20.5201 21.9107Z" fill="url(#paint8_linear_143_919)"/>
<path fill-rule="evenodd" clip-rule="evenodd" d="M25.3658 25.8903C23.8792 25.7455 21.7985 24.5587 20.4742 23.2842C21.5186 22.5822 22.4275 24.3422 23.5872 24.9075C24.2836 25.2445 25.2254 25.0787 25.3658 25.8903Z" fill="url(#paint9_linear_143_919)"/>
<path fill-rule="evenodd" clip-rule="evenodd" d="M25.4277 27.4478C23.4809 27.6752 20.5303 25.5797 19.1075 23.9169C19.3927 23.6848 19.7076 23.4918 20.0438 23.343C21.1514 24.7764 23.6713 26.079 25.19 26.3372C25.668 26.4191 25.4419 27.0482 25.4277 27.4478Z" fill="#0B0B0B"/>
<path fill-rule="evenodd" clip-rule="evenodd" d="M26.6729 34.5543C26.4723 34.3107 26.6641 33.9755 26.701 33.7296C26.9888 31.8593 27.1343 29.8378 26.6522 28.0759C26.6136 28.051 26.6503 28.0073 26.6626 27.9688C26.6748 27.9304 26.7291 27.9571 26.7677 27.9821C26.8063 28.0071 26.7814 28.0457 26.8229 28.0727C27.3613 29.7424 27.5969 31.4949 27.5188 33.2476C27.5028 33.6629 27.4453 34.7804 26.6729 34.5543Z" fill="url(#paint10_linear_143_919)"/>
<path fill-rule="evenodd" clip-rule="evenodd" d="M14.3076 20.3625C13.3944 20.6143 12.3045 20.8527 11.3652 20.4807C12.2507 20.0635 13.3326 19.7398 14.3076 20.3625Z" fill="url(#paint11_linear_143_919)"/>
<path fill-rule="evenodd" clip-rule="evenodd" d="M24.8648 29.2747C22.5191 28.9531 19.3296 26.7577 18.1376 24.8102C18.3059 24.5371 18.5197 24.295 18.7697 24.0941C20.0193 25.9398 23.2784 28.0665 25.3297 27.9446C25.2586 28.413 25.101 28.864 24.8648 29.2747Z" fill="url(#paint12_linear_143_919)"/>
<path fill-rule="evenodd" clip-rule="evenodd" d="M29.9336 31.6077L30.0108 31.6576C30.5191 32.3829 30.9106 33.2559 30.5584 34.2037C29.9384 33.423 29.4927 32.6077 29.9336 31.6077Z" fill="url(#paint13_linear_143_919)"/>
<path fill-rule="evenodd" clip-rule="evenodd" d="M17.8946 25.1C19.0781 27.0673 22.3299 29.3747 24.7089 29.6841C24.5774 30.1216 24.2991 30.5905 24.1138 31.0395C21.5486 30.0868 18.9555 27.9404 17.0954 26.1588C17.3436 25.7925 17.6104 25.4391 17.8946 25.1Z" fill="#0B0B0B"/>
<path fill-rule="evenodd" clip-rule="evenodd" d="M16.8633 26.5181C18.5401 28.3875 21.4638 30.5963 23.9204 31.4237C23.7334 31.7712 23.5186 32.1029 23.2782 32.4157C20.9228 31.5947 17.7796 29.5557 16.1329 27.7311C16.3904 27.3203 16.5559 26.9344 16.8633 26.5181Z" fill="url(#paint14_linear_143_919)"/>
<path fill-rule="evenodd" clip-rule="evenodd" d="M12.0301 25.4676C11.0428 26.4004 10.6579 28.4988 9.54546 28.5246C9.56305 27.1368 10.649 25.3616 12.0301 25.4676Z" fill="url(#paint15_linear_143_919)"/>
<path fill-rule="evenodd" clip-rule="evenodd" d="M26.0299 38.2429C25.185 37.5949 26.3539 36.219 26.5143 35.2355C26.6708 35.2202 26.8287 35.2455 26.9726 35.3088C27.1291 36.2193 27.1053 37.3629 26.0299 38.2429Z" fill="url(#paint16_linear_143_919)"/>
<path fill-rule="evenodd" clip-rule="evenodd" d="M22.8395 32.7474C22.9332 33.0062 22.4462 33.2051 22.3144 33.4738C20.0856 33.232 16.7755 31.4769 15.3065 29.4428C15.3595 29.081 15.7001 28.6525 15.8412 28.2718C17.8621 30.2028 20.2389 31.7228 22.8395 32.7474Z" fill="#0B0B0B"/>
<path fill-rule="evenodd" clip-rule="evenodd" d="M21.7148 33.8734C21.6172 34.2781 20.9011 34.5184 20.5507 34.8057C19.6211 34.6454 18.7286 34.3162 17.9175 33.8344C16.8623 33.2314 15.4878 32.3078 15.1368 31.5285C14.896 30.9891 15.1601 30.4899 15.1431 29.9563C16.5232 31.5873 19.6012 33.6684 21.7148 33.8734Z" fill="url(#paint17_linear_143_919)"/>
<path fill-rule="evenodd" clip-rule="evenodd" d="M25.089 16.9366C26.0035 16.9302 27.2623 15.7474 27.1538 14.6194C27.8442 14.4383 29.4526 15.0918 29.5544 15.9501C29.1333 16.1995 28.7944 16.5667 28.5794 17.0064C28.3644 17.4461 28.2827 17.939 28.3444 18.4246C28.382 18.5879 28.6091 18.7645 28.4668 18.841C27.6327 17.8964 26.1203 17.2966 25.089 16.9366Z" fill="#0B0B0B"/>
<path fill-rule="evenodd" clip-rule="evenodd" d="M24.9914 16.4816C24.9558 16.3781 24.9436 16.268 24.9558 16.1593C24.9679 16.0505 25.004 15.9458 25.0615 15.8526C25.1654 15.9199 25.2872 15.9987 25.3646 15.9898C25.5725 16.1244 26.3657 15.4199 26.2626 15.5597C25.9186 16.2473 25.4498 16.34 24.9914 16.4816Z" fill="url(#paint18_linear_143_919)"/>
<path fill-rule="evenodd" clip-rule="evenodd" d="M32.6566 19.9267C32.5425 20.4935 31.8599 20.591 31.4257 20.7018C30.9409 20.7908 30.4511 20.8495 29.959 20.8776C30.4144 20.3759 31.2458 20.3157 31.9124 20.1192C32.1656 20.0471 32.4184 19.8063 32.6566 19.9267Z" fill="url(#paint19_linear_143_919)"/>
<path fill-rule="evenodd" clip-rule="evenodd" d="M28.8447 17.7367C29.0051 17.8405 29.0591 18.4276 29.5504 18.4759C29.4774 18.5888 29.404 18.7478 29.3032 18.7668C28.8206 18.4966 28.8948 18.102 28.8447 17.7367Z" fill="url(#paint20_linear_143_919)"/>
<path fill-rule="evenodd" clip-rule="evenodd" d="M12.9197 14.6935C14.6673 16.7985 19.0346 18.6521 21.671 19.853L21.763 19.9126C20.1434 19.4458 17.6786 18.8785 15.7913 17.8421C14.487 17.1715 13.4677 16.0539 12.9197 14.6935Z" fill="url(#paint21_linear_143_919)"/>
<path fill-rule="evenodd" clip-rule="evenodd" d="M18.5278 22.6441C17.5995 22.8716 16.696 23.1902 15.8302 23.5951C14.9242 24.0832 14.123 24.7741 13.1928 25.1497C12.999 25.0112 12.817 24.8567 12.6488 24.688C13.4271 23.6746 14.7323 23.3184 15.7578 23.1015C16.6694 22.8848 17.595 22.732 18.5278 22.6441Z" fill="url(#paint22_linear_143_919)"/>
<path fill-rule="evenodd" clip-rule="evenodd" d="M19.7832 35.2105C19.1633 35.3023 18.1968 36.0337 17.4385 36.0527C17.1511 36.0605 16.9086 35.8361 16.6524 36.0496C16.3181 35.8868 16.0338 35.6371 15.8292 35.3267C15.6245 35.0163 15.5071 34.6565 15.4893 34.2852C16.0357 34.7822 16.8774 35.4872 17.589 35.6444C17.0091 34.8476 15.754 34.4818 15.3636 33.6981C15.1347 33.238 15.4473 32.8461 15.2547 32.3885C16.252 33.3544 18.3702 34.9195 19.7832 35.2105Z" fill="#0B0B0B"/>
</g>
<defs>
<linearGradient id="paint0_linear_143_919" x1="25.1748" y1="11.2478" x2="24.1481" y2="12.8337" gradientUnits="userSpaceOnUse">
<stop stop-color="#FFBA41"/>
<stop offset="1" stop-color="#694402" stop-opacity="0.75"/>
</linearGradient>
<linearGradient id="paint1_linear_143_919" x1="34.351" y1="17.3103" x2="33.0436" y2="19.3298" gradientUnits="userSpaceOnUse">
<stop stop-color="#FFBA41"/>
<stop offset="1" stop-color="#694402" stop-opacity="0.75"/>
</linearGradient>
<linearGradient id="paint2_linear_143_919" x1="23.9734" y1="13.7535" x2="22.5872" y2="15.8948" gradientUnits="userSpaceOnUse">
<stop stop-color="#FFBA41"/>
<stop offset="1" stop-color="#694402" stop-opacity="0.75"/>
</linearGradient>
<linearGradient id="paint3_linear_143_919" x1="35.1991" y1="23.0406" x2="32.5508" y2="27.1315" gradientUnits="userSpaceOnUse">
<stop stop-color="#FFBA41"/>
<stop offset="1" stop-color="#694402" stop-opacity="0.75"/>
</linearGradient>
<linearGradient id="paint4_linear_143_919" x1="26.8968" y1="18.3626" x2="23.2869" y2="23.939" gradientUnits="userSpaceOnUse">
<stop offset="0.161458" stop-color="#FFF9C0"/>
<stop offset="0.65625" stop-color="#FFBA41"/>
</linearGradient>
<linearGradient id="paint5_linear_143_919" x1="18.3829" y1="13.4342" x2="16.2679" y2="16.7013" gradientUnits="userSpaceOnUse">
<stop stop-color="#FFBA41"/>
<stop offset="1" stop-color="#694402" stop-opacity="0.75"/>
</linearGradient>
<linearGradient id="paint6_linear_143_919" x1="32.9772" y1="25.6424" x2="31.6092" y2="27.7557" gradientUnits="userSpaceOnUse">
<stop stop-color="#FFBA41"/>
<stop offset="1" stop-color="#694402" stop-opacity="0.75"/>
</linearGradient>
<linearGradient id="paint7_linear_143_919" x1="28.6633" y1="27.0135" x2="26.8945" y2="29.7458" gradientUnits="userSpaceOnUse">
<stop stop-color="#FFBA41"/>
<stop offset="1" stop-color="#694402" stop-opacity="0.75"/>
</linearGradient>
<linearGradient id="paint8_linear_143_919" x1="18.2615" y1="20.4486" x2="17.0561" y2="22.3107" gradientUnits="userSpaceOnUse">
<stop stop-color="#FFBA41"/>
<stop offset="1" stop-color="#694402" stop-opacity="0.75"/>
</linearGradient>
<linearGradient id="paint9_linear_143_919" x1="23.1862" y1="24.1761" x2="22.6906" y2="24.9415" gradientUnits="userSpaceOnUse">
<stop offset="0.161458" stop-color="#FFF9C0"/>
<stop offset="0.65625" stop-color="#FFBA41"/>
</linearGradient>
<linearGradient id="paint10_linear_143_919" x1="28.3586" y1="29.012" x2="25.3324" y2="33.6866" gradientUnits="userSpaceOnUse">
<stop stop-color="#FFBA41"/>
<stop offset="1" stop-color="#694402" stop-opacity="0.75"/>
</linearGradient>
<linearGradient id="paint11_linear_143_919" x1="13.2978" y1="19.7089" x2="12.375" y2="21.1344" gradientUnits="userSpaceOnUse">
<stop stop-color="#FFBA41"/>
<stop offset="1" stop-color="#694402" stop-opacity="0.75"/>
</linearGradient>
<linearGradient id="paint12_linear_143_919" x1="22.22" y1="25.9315" x2="21.094" y2="27.6709" gradientUnits="userSpaceOnUse">
<stop offset="0.161458" stop-color="#FFF9C0"/>
<stop offset="0.65625" stop-color="#FFBA41"/>
</linearGradient>
<linearGradient id="paint13_linear_143_919" x1="30.7459" y1="32.1335" x2="29.7461" y2="33.6778" gradientUnits="userSpaceOnUse">
<stop stop-color="#FFBA41"/>
<stop offset="1" stop-color="#694402" stop-opacity="0.75"/>
</linearGradient>
<linearGradient id="paint14_linear_143_919" x1="20.4753" y1="28.8564" x2="19.4425" y2="30.4518" gradientUnits="userSpaceOnUse">
<stop offset="0.161458" stop-color="#FFF9C0"/>
<stop offset="0.65625" stop-color="#FFBA41"/>
</linearGradient>
<linearGradient id="paint15_linear_143_919" x1="11.6428" y1="25.2169" x2="9.51446" y2="28.5045" gradientUnits="userSpaceOnUse">
<stop stop-color="#FFBA41"/>
<stop offset="1" stop-color="#694402" stop-opacity="0.75"/>
</linearGradient>
<linearGradient id="paint16_linear_143_919" x1="27.1912" y1="35.4504" x2="25.5743" y2="37.948" gradientUnits="userSpaceOnUse">
<stop stop-color="#FFBA41"/>
<stop offset="1" stop-color="#694402" stop-opacity="0.75"/>
</linearGradient>
<linearGradient id="paint17_linear_143_919" x1="18.5163" y1="31.8029" x2="17.398" y2="33.5305" gradientUnits="userSpaceOnUse">
<stop offset="0.161458" stop-color="#FFF9C0"/>
<stop offset="0.65625" stop-color="#FFBA41"/>
</linearGradient>
<linearGradient id="paint18_linear_143_919" x1="25.9224" y1="15.3159" x2="25.1157" y2="16.5621" gradientUnits="userSpaceOnUse">
<stop stop-color="#FFBA41"/>
<stop offset="1" stop-color="#694402" stop-opacity="0.75"/>
</linearGradient>
<linearGradient id="paint19_linear_143_919" x1="31.9438" y1="19.4653" x2="30.7134" y2="21.366" gradientUnits="userSpaceOnUse">
<stop stop-color="#FFBA41"/>
<stop offset="1" stop-color="#694402" stop-opacity="0.75"/>
</linearGradient>
<linearGradient id="paint20_linear_143_919" x1="29.2637" y1="18.0079" x2="28.9279" y2="18.5266" gradientUnits="userSpaceOnUse">
<stop stop-color="#FFBA41"/>
<stop offset="1" stop-color="#694402" stop-opacity="0.75"/>
</linearGradient>
<linearGradient id="paint21_linear_143_919" x1="17.4567" y1="17.1249" x2="16.6212" y2="18.4155" gradientUnits="userSpaceOnUse">
<stop stop-color="#FFBA41"/>
<stop offset="1" stop-color="#694402" stop-opacity="0.75"/>
</linearGradient>
<linearGradient id="paint22_linear_143_919" x1="16.9226" y1="21.605" x2="14.2041" y2="25.8044" gradientUnits="userSpaceOnUse">
<stop stop-color="#FFBA41"/>
<stop offset="1" stop-color="#694402" stop-opacity="0.75"/>
</linearGradient>
<clipPath id="clip0_143_919">
<rect width="37.5013" height="31.4622" fill="white" transform="translate(17.5977) rotate(32.9175)"/>
</clipPath>
</defs>
</svg>
